<?xml version="1.0" standalone="no"?>
<!DOCTYPE svg PUBLIC "-//W3C//DTD SVG 20010904//EN"
 "http://www.w3.org/TR/2001/REC-SVG-20010904/DTD/svg10.dtd">
<svg version="1.0" xmlns="http://www.w3.org/2000/svg"
 width="2500.000000pt" height="2500.000000pt" viewBox="0 0 2500.000000 2500.000000"
 preserveAspectRatio="xMidYMid meet">

<g transform="translate(0.000000,2500.000000) scale(0.100000,-0.100000)" stroke="none">
<path d="M18445 20824 c-626 -52 -1224 -234 -1750 -532 -143 -81 -417 -267
-555 -378 -154 -123 -488 -452 -603 -594 -275 -339 -497 -713 -655 -1105 -58
-144 -125 -343 -152 -452 l-14 -53 -5870 -3 c-5493 -3 -5875 -4 -5939 -20
-201 -51 -368 -142 -507 -277 -180 -175 -283 -388 -310 -643 -32 -299 79 -613
293 -829 181 -182 407 -287 667 -308 71 -6 2303 -10 5892 -10 l5776 0 13 -52
c6 -29 31 -111 54 -183 405 -1246 1375 -2234 2611 -2658 622 -214 1269 -276
1929 -186 1218 166 2311 877 2966 1930 696 1122 819 2519 327 3744 -376 938
-1100 1725 -1997 2175 -432 216 -890 354 -1381 416 -121 15 -676 27 -795 18z
m513 -2085 c675 -73 1254 -447 1595 -1030 346 -591 371 -1352 65 -1963 -105
-209 -209 -356 -373 -525 -180 -186 -363 -320 -580 -426 -292 -142 -581 -208
-915 -208 -582 0 -1088 215 -1495 634 -171 177 -278 329 -386 554 -134 277
-199 567 -199 892 0 536 187 1015 553 1417 276 303 694 539 1102 621 217 44
436 56 633 34z"/>
<path d="M5945 12489 c-1647 -122 -3065 -1204 -3623 -2764 -158 -441 -235
-896 -235 -1390 0 -681 143 -1280 449 -1885 214 -423 467 -765 815 -1105 448
-437 984 -764 1573 -961 282 -94 533 -150 851 -191 177 -22 724 -25 910 -5
804 89 1543 394 2175 898 263 210 593 562 800 854 260 367 508 893 610 1298
l14 52 5825 0 c3827 0 5850 4 5896 10 237 34 444 136 606 299 406 408 406
1063 0 1469 -127 127 -271 212 -456 269 l-90 28 -5890 5 -5889 5 -14 50 c-7
28 -33 112 -58 188 -287 892 -872 1666 -1649 2184 -612 408 -1290 639 -2030
693 -160 11 -429 11 -590 -1z m605 -2095 c436 -64 817 -250 1133 -554 191
-184 312 -346 425 -568 145 -284 210 -545 219 -873 8 -279 -20 -477 -102 -724
-181 -541 -563 -974 -1078 -1220 -803 -383 -1745 -219 -2377 415 -322 323
-525 738 -585 1193 -17 135 -20 383 -5 507 80 662 456 1233 1032 1569 266 155
586 252 908 275 93 6 320 -4 430 -20z"/>
</g>
</svg>
