<?xml version="1.0" standalone="no"?>
<!DOCTYPE svg PUBLIC "-//W3C//DTD SVG 20010904//EN"
 "http://www.w3.org/TR/2001/REC-SVG-20010904/DTD/svg10.dtd">
<svg version="1.0" xmlns="http://www.w3.org/2000/svg"
 width="2500.000000pt" height="2500.000000pt" viewBox="0 0 2500.000000 2500.000000"
 preserveAspectRatio="xMidYMid meet">

<g transform="translate(0.000000,2500.000000) scale(0.100000,-0.100000)" stroke="none">
<path d="M9045 23690 c-2010 -84 -3891 -897 -5319 -2300 -420 -413 -742 -800
-1061 -1275 -691 -1029 -1138 -2222 -1295 -3450 -44 -347 -80 -949 -65 -1095
29 -294 193 -531 448 -650 151 -71 360 -91 522 -50 223 57 408 208 510 417 59
121 72 201 84 538 12 323 27 491 66 763 376 2566 2269 4677 4788 5337 92 24
167 41 167 39 0 -3 -70 -123 -156 -267 -171 -285 -207 -365 -226 -508 -21
-161 19 -355 103 -494 41 -70 143 -182 207 -229 223 -163 529 -196 784 -83 82
36 173 101 243 173 52 53 152 213 644 1034 321 534 594 998 607 1031 80 196
73 436 -16 628 -79 169 -209 296 -385 377 -145 67 -273 80 -650 64z"/>
<path d="M18193 23689 c-364 -25 -729 -115 -1008 -248 -100 -48 -1054 -574
-2440 -1344 -391 -217 -513 -304 -730 -522 -465 -465 -790 -1112 -870 -1731
-14 -106 -15 -309 -12 -1660 3 -1539 3 -1539 25 -1654 99 -513 313 -980 638
-1390 165 -208 460 -472 674 -602 119 -73 2657 -1478 2735 -1514 245 -114 538
-193 850 -229 161 -19 519 -22 665 -6 386 43 715 137 995 285 305 161 2615
1448 2698 1503 593 392 1077 1123 1230 1858 53 253 52 212 52 1820 l0 1500
-22 140 c-131 811 -621 1592 -1263 2011 -135 87 -2683 1498 -2810 1555 -284
127 -611 203 -985 229 -168 11 -246 11 -422 -1z m362 -1559 c141 -13 251 -35
345 -70 41 -15 347 -178 680 -362 1977 -1095 1872 -1036 1882 -1046 5 -5
-2574 -1513 -2991 -1749 l-56 -32 -520 301 c-286 165 -704 407 -930 537 -225
130 -681 394 -1013 585 -332 192 -600 352 -595 356 10 9 2386 1326 2463 1365
189 96 469 139 735 115z m-2357 -3780 l1442 -833 0 -1475 c0 -1400 -1 -1474
-17 -1468 -37 14 -2301 1271 -2365 1313 -204 134 -409 421 -509 712 -62 180
-59 119 -59 1427 l0 1196 33 -19 c17 -11 681 -394 1475 -853z m5940 -337 l-3
-1208 -27 -97 c-49 -179 -147 -380 -263 -538 -65 -89 -197 -223 -270 -275 -33
-23 -501 -287 -1040 -585 -539 -298 -1059 -586 -1155 -640 l-175 -98 -3 1471
c-1 826 2 1475 7 1480 16 16 2906 1695 2919 1696 10 1 12 -228 10 -1206z"/>
<path d="M6335 12229 c-359 -28 -734 -124 -1000 -257 -185 -92 -2683 -1483
-2770 -1543 -636 -431 -1128 -1233 -1241 -2024 -18 -122 -19 -220 -19 -1620 0
-1573 0 -1555 46 -1790 79 -395 265 -819 512 -1165 217 -304 513 -588 781
-749 147 -88 2669 -1483 2746 -1519 230 -105 500 -180 810 -224 62 -8 198 -13
390 -13 259 0 314 3 450 24 295 45 540 117 775 230 115 55 2531 1389 2704
1493 304 183 608 484 838 828 271 405 441 840 498 1273 22 174 23 3037 0 3210
-70 533 -293 1045 -657 1504 -153 194 -410 429 -608 559 -76 49 -939 530
-2676 1490 -84 47 -251 115 -385 159 -364 117 -787 165 -1194 134z m535 -1575
c194 -33 237 -54 980 -465 1615 -895 1790 -993 1790 -998 0 -6 -71 -48 -1905
-1111 -599 -348 -1103 -640 -1120 -650 l-30 -18 -1522 881 c-837 485 -1523
887 -1524 892 -2 10 2305 1296 2476 1380 98 48 247 89 385 104 114 13 353 5
470 -15z m3438 -4354 l-3 -985 -23 -80 c-90 -311 -319 -655 -535 -804 -24 -16
-269 -154 -543 -307 -274 -152 -794 -440 -1154 -640 -361 -200 -664 -366 -673
-370 -16 -6 -17 81 -15 1471 l3 1476 1470 853 1470 852 3 -241 c1 -132 1 -683
0 -1225z m-5969 610 l1460 -845 1 -1474 c0 -1350 -1 -1473 -16 -1467 -37 14
-2285 1263 -2349 1305 -230 151 -451 484 -544 821 l-26 95 -3 1208 c-2 808 1
1208 7 1205 6 -1 667 -383 1470 -848z"/>
<path d="M22725 10130 c-287 -75 -506 -300 -568 -585 -9 -42 -18 -153 -22
-280 -7 -245 -20 -448 -41 -630 -203 -1792 -1135 -3408 -2594 -4495 -652 -485
-1429 -858 -2217 -1064 -95 -24 -173 -42 -173 -40 0 3 70 123 156 267 173 288
208 367 226 512 20 162 -19 351 -103 490 -48 81 -159 197 -237 249 -137 90
-269 129 -437 128 -166 0 -302 -42 -436 -133 -143 -97 -139 -91 -768 -1139
-321 -534 -594 -998 -607 -1031 -80 -196 -73 -436 16 -628 79 -169 209 -296
385 -377 134 -62 182 -69 445 -66 1733 16 3450 618 4831 1694 819 638 1510
1429 2029 2323 692 1192 1070 2564 1083 3925 2 264 -5 311 -68 447 -103 222
-282 372 -519 433 -105 26 -281 27 -381 0z"/>
</g>
</svg>
