<?xml version="1.0" standalone="no"?>
<!DOCTYPE svg PUBLIC "-//W3C//DTD SVG 20010904//EN"
 "http://www.w3.org/TR/2001/REC-SVG-20010904/DTD/svg10.dtd">
<svg version="1.0" xmlns="http://www.w3.org/2000/svg"
 width="75.000000pt" height="75.000000pt" viewBox="0 0 75.000000 75.000000"
 preserveAspectRatio="xMidYMid meet">

<g transform="translate(0.000000,75.000000) scale(0.100000,-0.100000)" stroke="none">
<path d="M329 675 c-55 -30 -61 -104 -14 -151 15 -15 25 -36 25 -54 l0 -28
-110 -4 c-104 -3 -111 -4 -137 -31 -28 -27 -28 -29 -28 -157 0 -128 0 -130 28
-157 l27 -28 255 0 255 0 27 28 c28 27 28 29 28 157 0 128 0 130 -28 157 -26
27 -33 28 -137 31 l-110 4 0 28 c0 18 10 39 25 54 48 48 40 122 -16 151 -35
18 -56 18 -90 0z m74 -67 c6 -18 -11 -48 -28 -48 -17 0 -34 30 -28 48 3 6 15
12 28 12 13 0 25 -6 28 -12z m217 -357 c0 -115 -1 -119 -22 -125 -30 -8 -416
-8 -445 0 -22 6 -23 10 -23 125 l0 119 245 0 245 0 0 -119z"/>
<path d="M224 266 c-10 -26 4 -48 28 -44 17 2 23 10 23 28 0 18 -6 26 -23 28
-13 2 -25 -3 -28 -12z"/>
<path d="M474 266 c-10 -26 4 -48 28 -44 17 2 23 10 23 28 0 18 -6 26 -23 28
-13 2 -25 -3 -28 -12z"/>
</g>
</svg>
