<?xml version="1.0" standalone="no"?>
<!DOCTYPE svg PUBLIC "-//W3C//DTD SVG 20010904//EN"
 "http://www.w3.org/TR/2001/REC-SVG-20010904/DTD/svg10.dtd">
<svg version="1.0" xmlns="http://www.w3.org/2000/svg"
 width="2500.000000pt" height="2500.000000pt" viewBox="0 0 2500.000000 2500.000000"
 preserveAspectRatio="xMidYMid meet">

<g transform="translate(0.000000,2500.000000) scale(0.100000,-0.100000)"
stroke="none">
<path d="M5255 21859 c-801 -39 -1279 -177 -1785 -514 -591 -395 -1041 -996
-1224 -1635 -105 -366 -141 -687 -156 -1380 -12 -541 -12 -11119 0 -11660 15
-693 51 -1014 156 -1380 252 -881 1000 -1662 1883 -1964 311 -107 638 -159
1176 -188 348 -19 14036 -19 14385 0 532 28 829 74 1139 173 581 187 1124 592
1502 1121 329 459 488 911 549 1558 32 348 33 470 37 6115 4 5536 1 6438 -27
6790 -56 703 -198 1144 -521 1620 -391 576 -1001 1025 -1634 1203 -217 61
-474 103 -820 134 -110 10 -1687 13 -7320 14 -3949 0 -7252 -2 -7340 -7z
m14535 -2088 c183 -18 313 -38 389 -61 138 -41 307 -164 423 -309 209 -261
228 -411 228 -1873 l0 -858 -8330 0 -8330 0 0 863 c0 1429 18 1588 207 1842
127 170 307 300 476 344 100 26 305 50 522 60 94 4 3347 7 7230 6 5523 -1
7087 -4 7185 -14z m-11460 -7271 l0 -2080 -2080 0 -2080 0 0 2080 0 2080 2080
0 2080 0 0 -2080z m6250 0 l0 -2080 -2080 0 -2080 0 0 2080 0 2080 2080 0
2080 0 0 -2080z m6250 0 l0 -2080 -2080 0 -2080 0 0 2080 0 2080 2080 0 2080
0 0 -2080z m-12500 -5730 l0 -1560 -1347 0 c-1615 0 -1897 10 -2134 73 -158
42 -326 160 -451 316 -209 261 -228 412 -228 1869 l0 862 2080 0 2080 0 0
-1560z m6250 0 l0 -1560 -2080 0 -2080 0 0 1560 0 1560 2080 0 2080 0 0 -1560z
m6250 703 c0 -1462 -19 -1614 -228 -1874 -125 -156 -293 -274 -451 -316 -237
-63 -519 -73 -2133 -73 l-1348 0 0 1560 0 1560 2080 0 2080 0 0 -857z"/>
</g>
</svg>
