<svg version="1.1" xmlns="http://www.w3.org/2000/svg" xmlns:xlink="http://www.w3.org/1999/xlink" width="498.05155" height="498.05155" viewBox="0,0,498.05155,498.05155"><defs><linearGradient x1="100.03436" y1="-7.8703" x2="473.94708" y2="216.62436" gradientUnits="userSpaceOnUse" id="color-1"><stop offset="0" stop-color="#114a7c"/><stop offset="1" stop-color="#1283e0"/></linearGradient><linearGradient x1="150.9659" y1="397.87359" x2="150.9659" y2="-38.2555" gradientUnits="userSpaceOnUse" id="color-2"><stop offset="0" stop-color="#114a7c"/><stop offset="1" stop-color="#1283e0"/></linearGradient><linearGradient x1="259.68252" y1="107.36163" x2="259.68252" y2="413.16129" gradientUnits="userSpaceOnUse" id="color-3"><stop offset="0" stop-color="#114a7c"/><stop offset="1" stop-color="#1283e0"/></linearGradient><linearGradient x1="100.03436" y1="-7.8703" x2="473.94708" y2="216.62436" gradientUnits="userSpaceOnUse" id="color-4"><stop offset="0" stop-color="#114a7c"/><stop offset="1" stop-color="#1283e0"/></linearGradient><linearGradient x1="100.03436" y1="-7.8703" x2="473.94708" y2="216.62436" gradientUnits="userSpaceOnUse" id="color-5"><stop offset="0" stop-color="#114a7c"/><stop offset="1" stop-color="#1283e0"/></linearGradient><linearGradient x1="150.9659" y1="397.87358" x2="150.9659" y2="-38.25551" gradientUnits="userSpaceOnUse" id="color-6"><stop offset="0" stop-color="#114a7c"/><stop offset="1" stop-color="#1283e0"/></linearGradient><linearGradient x1="259.68252" y1="107.36163" x2="259.68252" y2="413.16129" gradientUnits="userSpaceOnUse" id="color-7"><stop offset="0" stop-color="#114a7c"/><stop offset="1" stop-color="#1283e0"/></linearGradient><linearGradient x1="100.03436" y1="-7.8703" x2="473.94708" y2="216.62436" gradientUnits="userSpaceOnUse" id="color-8"><stop offset="0" stop-color="#114a7c"/><stop offset="1" stop-color="#1283e0"/></linearGradient></defs><g transform="translate(9.02578,69.02578)"><g data-paper-data="{&quot;isPaintingLayer&quot;:true}" fill-rule="nonzero" stroke-linejoin="miter" stroke-miterlimit="10" stroke-dasharray="" stroke-dashoffset="0" style="mix-blend-mode: normal"><path d="M-9.02553,180c0,-137.533 111.49253,-249.02553 249.02553,-249.02553c137.533,0 249.02553,111.49253 249.02553,249.02553c0,137.533 -111.49253,249.02553 -249.02553,249.02553c-137.533,0 -249.02553,-111.49253 -249.02553,-249.02553z" fill="none" stroke="#000000" stroke-width="0.0005" stroke-linecap="butt"/><g stroke="#ffffff" stroke-width="22.5" stroke-linecap="round"><path d="M394.85608,28.60825c11.03608,6.26449 35.73698,17.56442 46.38717,37.73554c11.46526,21.71482 8.48665,52.59533 8.52467,65.87917c0.08258,28.85722 0.26346,92.03495 0.26346,92.03495l-0.11441,32.39048c0,0 -1.78557,-17.03335 -7.60155,-28.68775c-5.09218,-10.20404 -16.99613,-18.26927 -16.99613,-18.26927c0,0 -130.95119,-77.18933 -161.5091,-95.20171c-6.09175,-3.5908 -16.57378,-8.71824 -26.72257,-8.40874c-10.02472,0.30575 -19.72036,6.00643 -25.18031,9.25591c-17.99964,10.71244 -71.22983,42.39235 -71.22983,42.39235l-66.90187,-121.86338c0,0 78.37591,-45.71408 108.64846,-63.37106c12.1284,-7.07411 35.78152,-21.55187 54.89001,-24.29158c15.13845,-2.1705 26.20731,5.85447 35.0052,10.84852c37.84982,21.48505 97.14045,55.14073 122.53679,69.55672z" fill="url(#color-1)"/><path d="M30.48295,126.33279c-0.30991,-12.68633 -3.33667,-39.68004 8.4748,-59.19389c12.71542,-21.00724 40.72388,-34.34911 52.0931,-41.21946c24.69807,-14.9249 78.77002,-47.60024 78.77002,-47.60024l27.82867,-14.5747c0,0 -13.68434,8.29867 -20.68242,19.28399c-6.12719,9.61821 -6.91444,23.97552 -6.91444,23.97552c0,0 1.22848,152.00296 1.51518,187.47339c0.05715,7.07103 1.05669,18.69711 6.5461,27.23882c5.42231,8.43728 15.30051,13.81534 20.8969,16.82377c18.44944,9.91772 73.00993,39.24732 73.00993,39.24732l-70.0415,120.08632c0,0 -79.5362,-43.66411 -110.25691,-60.5293c-12.30798,-6.75687 -36.89571,-19.58339 -49.08054,-34.55568c-9.6533,-11.8616 -8.47076,-25.48224 -8.71779,-35.59571c-1.06289,-43.50959 -2.72783,-111.66617 -3.44101,-140.86007z" fill="url(#color-2)"/><path d="M294.41796,391.99654c-10.96392,6.38999 -33.15093,22.06027 -55.94187,21.12463c-24.53509,-1.00723 -49.73094,-19.10833 -61.23273,-25.75438c-24.98604,-14.43764 -79.68841,-46.04624 -79.68841,-46.04624l-27.94116,-16.38441c0,0 15.62161,7.02068 28.61998,7.85298c11.38073,0.7287 24.33759,-5.50604 24.33759,-5.50604c0,0 132.5638,-74.38578 163.49803,-91.74395c6.16677,-3.46033 15.86925,-9.94308 20.70439,-18.87144c4.77604,-8.81923 4.72308,-20.06644 4.6594,-26.41988c-0.20997,-20.94515 -0.83092,-82.88614 -0.83092,-82.88614l138.97735,3.44066c0,0 0.10935,90.73342 0.15157,125.77903c0.01691,14.04073 0.63921,41.76591 -6.60005,59.66099c-5.73521,14.17713 -18.23735,19.71029 -26.97775,24.80434c-37.60231,21.91537 -96.50517,56.24516 -121.73542,70.94986z" fill="url(#color-3)"/><path d="M394.85608,28.60825c11.03608,6.26452 35.73698,17.56442 46.38717,37.73554c11.46526,21.71482 8.48665,52.59536 8.52467,65.87917c0.08258,28.85722 0.26343,92.03495 0.26343,92.03495l-0.11441,32.39048c0,0 -1.78557,-17.03339 -7.60155,-28.68779c-5.09218,-10.20401 -16.99613,-18.2693 -16.99613,-18.2693c0,0 -69.29325,-40.84499 -118.83025,-70.04464c1.75185,-12.60537 -2.43334,-25.05471 -3.1085,-38.24327c-0.30762,-6.00967 0.32088,-12.7303 -0.14877,-18.96179c-0.40823,-5.41658 -3.17214,-22.71709 -3.29663,-30.99626c-0.34469,-22.92699 0.05799,-45.85922 0,-68.78873c-0.0068,-2.69728 -0.11501,-5.39535 -0.28994,-8.09374c34.83253,19.7723 75.36774,42.78172 95.21083,54.04544z" fill="url(#color-4)"/></g><g stroke="#000000" stroke-width="0" stroke-linecap="round"><path d="M394.85608,28.60824c11.03608,6.26449 35.73698,17.56441 46.38718,37.73554c11.46526,21.71482 8.48665,52.59533 8.52467,65.87917c0.08259,28.85722 0.26347,92.03495 0.26347,92.03495l-0.11441,32.39048c0,0 -1.78558,-17.03335 -7.60156,-28.68775c-5.09218,-10.20404 -16.99613,-18.26927 -16.99613,-18.26927c0,0 -130.95119,-77.18933 -161.50911,-95.20171c-6.09175,-3.5908 -16.57378,-8.71823 -26.72257,-8.40874c-10.02472,0.30574 -19.72036,6.00643 -25.18031,9.25591c-17.99963,10.71244 -71.22982,42.39234 -71.22982,42.39234l-66.90188,-121.86338c0,0 78.37591,-45.71408 108.64846,-63.37106c12.12841,-7.07412 35.78152,-21.55187 54.89001,-24.29159c15.13845,-2.17051 26.20731,5.85448 35.0052,10.84853c37.84982,21.48505 97.14045,55.14073 122.53679,69.55672z" fill="url(#color-5)"/><path d="M30.48295,126.33279c-0.30991,-12.68633 -3.33668,-39.68003 8.47479,-59.19389c12.71542,-21.00724 40.72388,-34.34911 52.0931,-41.21946c24.69807,-14.9249 78.77003,-47.60024 78.77003,-47.60024l27.82866,-14.5747c0,0 -13.68434,8.29868 -20.68242,19.28399c-6.12719,9.6182 -6.91444,23.97551 -6.91444,23.97551c0,0 1.22848,152.00296 1.51518,187.47339c0.05716,7.07103 1.05669,18.69711 6.5461,27.23882c5.42231,8.43728 15.30051,13.81534 20.8969,16.82377c18.44945,9.91772 73.00993,39.24732 73.00993,39.24732l-70.0415,120.08632c0,0 -79.5362,-43.66412 -110.25691,-60.52931c-12.30798,-6.75686 -36.89571,-19.58338 -49.08054,-34.55568c-9.6533,-11.8616 -8.47076,-25.48224 -8.71779,-35.59571c-1.06289,-43.50959 -2.72783,-111.66617 -3.44101,-140.86007z" fill="url(#color-6)"/><path d="M294.41796,391.99654c-10.96392,6.38999 -33.15093,22.06027 -55.94187,21.12463c-24.53509,-1.00723 -49.73094,-19.10833 -61.23273,-25.75438c-24.98605,-14.43764 -79.68841,-46.04624 -79.68841,-46.04624l-27.94116,-16.38442c0,0 15.62161,7.02068 28.61998,7.85297c11.38073,0.72869 24.33759,-5.50604 24.33759,-5.50604c0,0 132.5638,-74.38578 163.49804,-91.74395c6.16677,-3.46034 15.86925,-9.94309 20.70438,-18.87144c4.77604,-8.81923 4.72308,-20.06645 4.65941,-26.41988c-0.20996,-20.94515 -0.83093,-82.88613 -0.83093,-82.88613l138.97734,3.44066c0,0 0.10935,90.73342 0.15157,125.77902c0.01691,14.04072 0.63921,41.76591 -6.60005,59.661c-5.7352,14.17713 -18.23735,19.71028 -26.97774,24.80434c-37.60231,21.91538 -96.50518,56.24516 -121.73543,70.94986z" fill="url(#color-7)"/><path d="M394.85608,28.60824c11.03608,6.26452 35.73698,17.56441 46.38718,37.73554c11.46526,21.71482 8.48665,52.59537 8.52467,65.87917c0.08259,28.85722 0.26343,92.03495 0.26343,92.03495l-0.11441,32.39048c0,0 -1.78558,-17.03338 -7.60156,-28.68779c-5.09218,-10.20401 -16.99613,-18.2693 -16.99613,-18.2693c0,0 -69.29325,-40.84499 -118.83025,-70.04464c1.75185,-12.60536 -2.43334,-25.05471 -3.1085,-38.24327c-0.30762,-6.00967 0.32088,-12.73029 -0.14877,-18.96179c-0.40823,-5.41659 -3.17214,-22.71709 -3.29662,-30.99626c-0.34469,-22.92699 0.05798,-45.85923 0,-68.78873c-0.0068,-2.69728 -0.11501,-5.39535 -0.28995,-8.09374c34.83253,19.7723 75.36774,42.78172 95.21084,54.04544z" fill="url(#color-8)"/></g></g></g></svg>