<svg version="1.1" xmlns="http://www.w3.org/2000/svg" xmlns:xlink="http://www.w3.org/1999/xlink" width="96.87463" height="106.95867" viewBox="0,0,96.87463,106.95867"><g transform="translate(-273.12537,-157.3735)"><g data-paper-data="{&quot;isPaintingLayer&quot;:true}" fill-rule="nonzero" stroke="none" stroke-width="1" stroke-linecap="butt" stroke-linejoin="miter" stroke-miterlimit="10" stroke-dasharray="" stroke-dashoffset="0" style="mix-blend-mode: normal"><path d="M332.8,161.5c10.2,5.9 10.3,7.5 0.6,13c-4.8,2.8 -5.9,3 -11.1,2.5c-5.7,-0.6 -6,-0.5 -15.8,5.1c-11.7,6.6 -14.3,8.7 -16.1,13.1c-2,4.7 -1.9,17.7 0.2,19.8c2.1,2.1 3,1.8 20.2,-8.2c54.1,-31.4 50.5,-29.7 54.6,-25.7c3.6,3.7 4.6,8.2 4.6,20.9c0,21.5 -1.1,33.4 -3.4,36.7c-1.9,2.8 -22.9,15.7 -37.8,23.4c-7.9,4 -9.2,3.6 -31.7,-9.4c-16.6,-9.6 -20.8,-12.4 -22.3,-15.2c-1.7,-3.2 -1.8,-5.6 -1.6,-27.7c0.3,-22.7 0.4,-24.3 2.4,-27c1.2,-1.6 10.3,-7.6 21.5,-14c23.3,-13.5 24.5,-13.8 35.7,-7.3zM350,206.8c-1.7,-0.2 -9.9,4.1 -24.5,12.6c-26.2,15.3 -26.5,15.6 -16.3,21.7c4,2.4 8,3.9 11,4.2c4.4,0.4 5.6,0 14,-4.8c18,-10.2 19,-11.7 18.6,-24.8c-0.3,-8.5 -0.4,-8.7 -2.8,-8.9z"/></g></g></svg>