<svg preserveAspectRatio="xMidYMid meet" viewBox="0 0 336.000000 375.000000" height="375.000000pt" width="336.000000pt" xmlns="http://www.w3.org/2000/svg" version="1.0">

<g stroke="none" fill="#000000" transform="translate(0.000000,375.000000) scale(0.100000,-0.100000)">
<path d="M910 2993 c-33 -13 -366 -208 -388 -227 -49 -44 -52 -60 -52 -308 0
-213 2 -236 19 -265 19 -30 65 -60 339 -218 125 -73 126 -72 367 67 260 151
245 125 245 412 0 222 -6 265 -42 303 -41 43 -21 52 -421 -180 -158 -92 -295
-167 -305 -167 -33 0 -42 21 -42 104 0 119 17 143 155 223 106 61 112 63 179
63 58 0 77 5 121 30 68 39 75 57 37 90 -71 59 -164 91 -212 73z m348 -495 c7
-7 12 -45 12 -99 0 -116 -12 -133 -160 -218 -142 -82 -171 -85 -270 -25 -76
46 -86 71 -43 101 56 39 431 253 443 253 3 0 11 -5 18 -12z"></path>
<path d="M1889 2971 c-30 -16 -123 -69 -208 -118 -122 -70 -158 -96 -173 -123
-16 -31 -18 -60 -18 -271 0 -277 0 -277 110 -341 301 -176 331 -191 373 -191
35 1 74 19 222 105 229 133 220 127 239 159 14 23 16 64 16 272 0 237 -1 245
-22 277 -31 44 -407 260 -453 260 -18 0 -56 -13 -86 -29z m247 -221 c164 -95
164 -94 164 -284 0 -200 1 -198 -190 -307 -132 -75 -149 -74 -303 15 -159 93
-161 96 -165 266 -5 206 -1 214 176 317 146 85 157 85 318 -7z"></path>
<path d="M1330 2047 c-245 -136 -301 -171 -323 -201 -20 -28 -22 -45 -25 -169
-3 -114 -1 -142 12 -163 46 -69 146 17 146 125 0 60 18 107 51 137 13 12 69
47 124 79 129 75 161 77 259 20 92 -53 101 -68 58 -104 -18 -15 -91 -61 -163
-101 -72 -40 -137 -83 -145 -94 -22 -32 -18 -83 11 -111 42 -43 75 -34 236 58
172 99 172 99 194 83 14 -10 17 -27 14 -109 -4 -92 -5 -98 -34 -126 -16 -16
-74 -55 -128 -86 -117 -69 -148 -72 -237 -26 -107 56 -239 26 -215 -49 3 -10
63 -56 133 -100 167 -107 157 -108 397 30 201 115 231 138 245 189 5 20 10
129 10 243 0 247 -6 271 -78 316 -26 16 -118 70 -204 121 -196 113 -202 114
-338 38z"></path>
<path d="M2251 1987 c-112 -64 -203 -124 -215 -140 -20 -27 -21 -43 -24 -270
-2 -221 -1 -245 16 -277 15 -28 57 -56 223 -152 225 -130 238 -134 317 -94
149 77 359 206 378 234 23 33 34 152 34 367 0 127 -10 172 -46 209 -41 40 -5
57 -546 -257 -172 -100 -181 -103 -202 -82 -21 21 -22 151 -2 198 18 44 44 65
161 131 98 56 101 57 158 51 52 -5 63 -3 111 25 97 55 96 71 -6 130 -112 65
-124 62 -357 -73z m557 -469 c4 -131 -6 -146 -186 -248 -84 -48 -96 -52 -140
-48 -30 3 -70 18 -110 42 -102 61 -99 64 163 217 146 85 228 128 245 126 24
-2 25 -4 28 -89z"></path>
</g>
</svg>
