<svg version="1.1" xmlns="http://www.w3.org/2000/svg" xmlns:xlink="http://www.w3.org/1999/xlink" width="96" height="107.3" viewBox="0,0,96,107.3"><g transform="translate(-221,-67.5)"><g data-paper-data="{&quot;isPaintingLayer&quot;:true}" fill-rule="nonzero" stroke="none" stroke-width="1" stroke-linecap="butt" stroke-linejoin="miter" stroke-miterlimit="10" stroke-dasharray="" stroke-dashoffset="0" style="mix-blend-mode: normal"><path d="M269.5,67.5c4.6,0 42.2,21.6 45.3,26c2.1,3.2 2.2,4 2.2,27.7c0,20.8 -0.2,24.9 -1.6,27.2c-1.9,3.2 -1,2.6 -23.9,15.9c-14.8,8.6 -18.7,10.4 -22.2,10.5c-4.2,0 -7.2,-1.5 -37.3,-19.1c-11,-6.4 -11,-6.4 -11,-34.1c0,-21.1 0.2,-24 1.8,-27.1c1.5,-2.7 5.1,-5.3 17.3,-12.3c8.5,-4.9 17.8,-10.2 20.8,-11.8c3,-1.6 6.8,-2.9 8.6,-2.9zM253.8,91.8c-17.7,10.3 -18.1,11.1 -17.6,31.7c0.4,17 0.6,17.3 16.5,26.6c15.4,8.9 17.1,9 30.3,1.5c19.1,-10.9 19,-10.7 19,-30.7c0,-19 0,-18.9 -16.4,-28.4c-16.1,-9.2 -17.2,-9.2 -31.8,-0.7z"/></g></g></svg>