<svg version="1.1" xmlns="http://www.w3.org/2000/svg" xmlns:xlink="http://www.w3.org/1999/xlink" width="97.01605" height="107.10823" viewBox="0,0,97.01605,107.10823"><g transform="translate(-119,-67.69968)"><g data-paper-data="{&quot;isPaintingLayer&quot;:true}" fill-rule="nonzero" stroke="none" stroke-width="1" stroke-linecap="butt" stroke-linejoin="miter" stroke-miterlimit="10" stroke-dasharray="" stroke-dashoffset="0" style="mix-blend-mode: normal"><path d="M184.2,75.5c3.8,3.3 3.1,5.1 -3.7,9c-4.4,2.5 -6.3,3 -12.1,3c-6.7,0 -7.3,0.2 -17.9,6.3c-13.8,8 -15.5,10.4 -15.5,22.3c0,8.3 0.9,10.4 4.2,10.4c1,0 14.7,-7.5 30.5,-16.7c40,-23.2 38,-22.3 42.1,-18c3.6,3.8 4.2,8.1 4.2,30.3c0,28.7 1.5,26.1 -24.5,41.2c-24.1,13.9 -24.2,14 -36.7,6.7c-27.4,-15.8 -32,-18.8 -33.9,-21.8c-1.7,-2.9 -1.9,-5.2 -1.9,-26.5c0,-24.8 0.3,-26.4 5.2,-30.8c2.2,-1.9 35.5,-21.4 38.8,-22.7c4.8,-1.8 14.1,1.4 21.2,7.3zM196,116.5c-1.2,0 -38.7,21.4 -44.3,25.3c-4.3,3 -3.3,5.5 4.3,10.1c9.9,6 12.8,5.7 27,-2.5c14.8,-8.5 16,-10.2 16,-21.8c0,-5.4 -0.5,-9.2 -1.2,-9.9c-0.7,-0.7 -1.5,-1.2 -1.8,-1.2z"/></g></g></svg>