<svg version="1.1" xmlns="http://www.w3.org/2000/svg" xmlns:xlink="http://www.w3.org/1999/xlink" width="96" height="107.3" viewBox="0,0,96,107.3"><g transform="translate(-192,-126.35)"><g data-paper-data="{&quot;isPaintingLayer&quot;:true}" fill-rule="nonzero" stroke="none" stroke-width="0.5" stroke-linecap="butt" stroke-linejoin="miter" stroke-miterlimit="10" stroke-dasharray="" stroke-dashoffset="0" style="mix-blend-mode: normal"><path d="M240.5,126.35c4.6,0 42.2,21.6 45.3,26c2.1,3.2 2.2,4 2.2,27.7c0,20.8 -0.2,24.9 -1.6,27.2c-1.9,3.2 -1,2.6 -23.9,15.9c-14.8,8.6 -18.7,10.4 -22.2,10.5c-4.2,0 -7.2,-1.5 -37.3,-19.1c-11,-6.4 -11,-6.4 -11,-34.1c0,-21.1 0.2,-24 1.8,-27.1c1.5,-2.7 5.1,-5.3 17.3,-12.3c8.5,-4.9 17.8,-10.2 20.8,-11.8c3,-1.6 6.8,-2.9 8.6,-2.9z"/></g></g></svg>