<svg version="1.1" xmlns="http://www.w3.org/2000/svg" xmlns:xlink="http://www.w3.org/1999/xlink" width="96.92205" height="106.6832" viewBox="0,0,96.92205,106.6832"><g transform="translate(-170.07795,-157.53657)"><g data-paper-data="{&quot;isPaintingLayer&quot;:true}" fill-rule="nonzero" stroke="none" stroke-width="1" stroke-linecap="butt" stroke-linejoin="miter" stroke-miterlimit="10" stroke-dasharray="" stroke-dashoffset="0" style="mix-blend-mode: normal"><path d="M238.8,166.6c8.6,5.1 17.8,10.5 20.4,12.1c7.2,4.5 7.8,6.9 7.8,31.6c0,11.4 -0.5,22.3 -1,24.3c-1.4,5.1 -4.4,7.4 -24.5,18.9c-24,13.8 -23,13.7 -39.7,3c-7,-4.4 -13,-9 -13.3,-10c-2.4,-7.5 10.8,-10.5 21.5,-4.9c8.9,4.6 12,4.3 23.7,-2.6c5.4,-3.1 11.2,-7 12.8,-8.6c2.9,-2.8 3,-3.4 3.4,-12.6c0.3,-8.2 0,-9.9 -1.4,-10.9c-2.2,-1.6 -2.2,-1.6 -19.4,8.3c-16.1,9.2 -19.4,10.1 -23.6,5.8c-2.9,-2.8 -3.3,-7.9 -1.1,-11.1c0.8,-1.1 7.3,-5.4 14.5,-9.4c7.2,-4 14.5,-8.6 16.3,-10.1c4.3,-3.6 3.4,-5.1 -5.8,-10.4c-9.8,-5.7 -13,-5.5 -25.9,2c-5.5,3.2 -11.1,6.7 -12.4,7.9c-3.3,3 -5.1,7.7 -5.1,13.7c0,10.8 -10,19.4 -14.6,12.5c-1.3,-2.1 -1.5,-4.9 -1.2,-16.3c0.3,-12.4 0.5,-14.1 2.5,-16.9c2.2,-3 7.8,-6.5 32.3,-20.1c13.6,-7.6 14.2,-7.5 33.8,3.8z"/></g></g></svg>