<svg version="1.1" xmlns="http://www.w3.org/2000/svg" xmlns:xlink="http://www.w3.org/1999/xlink" width="255.72122" height="255.72122" viewBox="0,0,255.72122,255.72122"><defs><linearGradient x1="243.03538" y1="117.63484" x2="243.03538" y2="158.09794" gradientUnits="userSpaceOnUse" id="color-1"><stop offset="0" stop-color="#ffffff"/><stop offset="1" stop-color="#d6d5de"/></linearGradient></defs><g transform="translate(-112.13939,-52.1394)"><g data-paper-data="{&quot;isPaintingLayer&quot;:true}" fill-rule="nonzero" stroke-linejoin="miter" stroke-miterlimit="10" stroke-dasharray="" stroke-dashoffset="0" style="mix-blend-mode: normal"><path d="M112.13964,180.00001c0,-70.61533 57.24505,-127.86036 127.86036,-127.86036c70.61533,0 127.86036,57.24505 127.86036,127.86036c0,70.61533 -57.24505,127.86036 -127.86036,127.86036c-70.61533,0 -127.86036,-57.24505 -127.86036,-127.86036z" fill="none" stroke="#000000" stroke-width="0.0005" stroke-linecap="butt"/><path d="M190.00226,128.92447c4.97079,-5.87859 8.32102,-6.05203 17.42559,-22.47408c9.89065,-17.83993 -2.77955,-26.39227 -2.77955,-26.39227l-15.37514,3.2001c0,0 17.008,-22.47644 31.81735,-25.0899c14.80935,-2.61347 23.21559,-3.89753 38.84502,11.47536c15.62942,15.37289 13.11535,27.00166 25.60406,43.36459c12.48871,16.36294 21.80187,23.0051 21.80187,23.0051c0,0 -34.29076,-2.9723 -53.80616,-2.3383c-19.5154,0.634 -30.7821,1.70643 -49.77376,5.56047c-18.99167,3.85403 -34.19587,7.02209 -34.19587,7.02209c0,0 15.46579,-11.45457 20.43658,-17.33315z" fill="#eb1b3b" stroke="#000000" stroke-width="0" stroke-linecap="round"/><path d="M165.23756,142.08313c0.97638,-1.98594 2.07189,-3.02525 3.3113,-3.84185c0.69819,-0.52542 1.46087,-0.96973 2.27406,-1.31894c0.3656,-0.2068 0.74179,-0.42644 1.12901,-0.67148c5.27601,-3.33883 11.31804,-6.32442 17.01058,-8.96691c15.26672,-7.08684 33.0299,-8.21821 49.64011,-9.09243c16.5527,-0.87119 37.34322,-1.41987 53.63903,3.95391c10.29751,3.39575 26.55245,8.29546 29.5482,20.27846c1.78319,7.13275 -5.06722,12.11508 -11.15906,12.9932c-2.17605,0.31367 -4.52473,-0.52127 -6.36717,-1.72086c-4.12183,-2.68367 -3.28566,-4.48484 -7.99054,-6.36073c-13.73544,-5.47648 -18.22466,-6.15278 -33.16396,-7.32813c-8.06169,-0.63426 -16.51072,-0.23309 -24.50649,0.21112c-10.34616,0.57479 -22.418,0.43308 -32.32636,4.08708c-7.41894,2.73595 -14.30541,5.86523 -21.23238,9.66776c-2.83641,1.55704 -6.24681,4.50496 -9.61528,4.08391c-0.08763,0.00206 -0.17551,0.00309 -0.26364,0.00309c-4.26192,0 -7.95844,-2.42082 -9.78949,-5.96242c-1.66955,-2.79899 -1.95724,-6.3143 -0.13793,-10.01477z" fill="url(#color-1)" stroke="none" stroke-width="0.5" stroke-linecap="butt"/><path d="M174.75,87.78595c0,-5.72995 4.64505,-10.375 10.375,-10.375c5.72995,0 10.375,4.64505 10.375,10.375c0,5.72995 -4.64505,10.375 -10.375,10.375c-5.72995,0 -10.375,-4.64505 -10.375,-10.375z" fill="#ffffff" stroke="none" stroke-width="0" stroke-linecap="butt"/></g></g></svg>