<svg version="1.1" xmlns="http://www.w3.org/2000/svg" xmlns:xlink="http://www.w3.org/1999/xlink" width="255.72122" height="255.72122" viewBox="0,0,255.72122,255.72122"><defs><linearGradient x1="241.09423" y1="140.61494" x2="241.09423" y2="181.75786" gradientUnits="userSpaceOnUse" id="color-1"><stop offset="0" stop-color="#d6d5de"/><stop offset="1" stop-color="#b4b0c3"/></linearGradient></defs><g transform="translate(-112.13939,-52.1394)"><g data-paper-data="{&quot;isPaintingLayer&quot;:true}" fill-rule="nonzero" stroke-linejoin="miter" stroke-miterlimit="10" stroke-dasharray="" stroke-dashoffset="0" style="mix-blend-mode: normal"><path d="M195.73557,175.3913c-10.15278,-3.36211 -23.67488,-5.75465 -27.5321,-13.86686c-6.17792,-13.29009 2.59834,-15.5692 2.59834,-15.5692l19.11303,-8.54528l25.07839,-16.77298l68.96016,10.9286l17.30355,2.19763c0,0 24.66908,7.56169 16.13693,19.03006c-4.33815,4.75768 -14.14749,10.88385 -30.0181,17.48278c-15.8706,6.59893 -68.14078,12.8971 -91.64021,5.11524z" fill="#7f1729" stroke="#000000" stroke-width="0" stroke-linecap="round"/><path d="M163.2126,151.90964c1.63433,-3.63657 5.19271,-6.25621 9.44824,-6.48964c0.08799,-0.00483 0.1758,-0.00861 0.26341,-0.01135c3.34036,-0.60492 6.90709,2.1518 9.82452,3.55115c7.12483,3.41744 14.17236,6.16484 21.73001,8.49036c10.09361,3.10584 22.13957,2.30318 32.50168,2.31044c8.0081,0.00562 16.46642,-0.05657 24.48127,-1.13141c14.85251,-1.99181 19.29795,-2.91296 32.71283,-9.13351c4.59508,-2.13076 3.66151,-3.88343 7.63017,-6.78882c1.77397,-1.29869 4.0734,-2.26102 6.26336,-2.067c6.13079,0.54316 13.2438,5.14281 11.85394,12.36252c-2.33495,12.12909 -18.29714,17.91172 -28.3932,21.86637c-15.97703,6.25823 -36.7664,6.84906 -53.34196,6.88576c-16.63316,0.03683 -34.43165,-0.11996 -50.0636,-6.36001c-5.82873,-2.32675 -12.02521,-4.97694 -17.47617,-8.02179c-0.40005,-0.22347 -0.78771,-0.42217 -1.16409,-0.60864c-0.8311,-0.30415 -1.61697,-0.70602 -2.34288,-1.19241c-1.28227,-0.74749 -2.43307,-1.72524 -3.51675,-3.65472c-2.01926,-3.59527 -1.92453,-7.12107 -0.41079,-10.00729z" data-paper-data="{&quot;index&quot;:null}" fill="url(#color-1)" stroke="none" stroke-width="0.5" stroke-linecap="butt"/><path d="M112.13964,180.00001c0,-70.61533 57.24505,-127.86036 127.86036,-127.86036c70.61533,0 127.86036,57.24505 127.86036,127.86036c0,70.61533 -57.24505,127.86036 -127.86036,127.86036c-70.61533,0 -127.86036,-57.24505 -127.86036,-127.86036z" fill="none" stroke="#000000" stroke-width="0.0005" stroke-linecap="butt"/></g></g></svg>