<svg version="1.1" xmlns="http://www.w3.org/2000/svg" xmlns:xlink="http://www.w3.org/1999/xlink" width="255.72122" height="255.72122" viewBox="0,0,255.72122,255.72122"><g transform="translate(-112.13939,-52.1394)"><g data-paper-data="{&quot;isPaintingLayer&quot;:true}" fill-rule="nonzero" stroke="#000000" stroke-linejoin="miter" stroke-miterlimit="10" stroke-dasharray="" stroke-dashoffset="0" style="mix-blend-mode: normal"><path d="M112.13964,180.00001c0,-70.61533 57.24504,-127.86036 127.86036,-127.86036c70.61533,0 127.86036,57.24505 127.86036,127.86036c0,70.61533 -57.24504,127.86036 -127.86036,127.86036c-70.61533,0 -127.86036,-57.24504 -127.86036,-127.86036z" fill="none" stroke-width="0.0005" stroke-linecap="butt"/><path d="M232.66249,205.83924c-22.34048,-0.08169 -44.53073,-4.58275 -72.00775,-12.36461c-11.87128,-3.36211 -18.08195,-7.25465 -22.59207,-15.36686c-7.22362,-13.29009 0.28945,-14.8192 0.28945,-14.8192l37.34817,-9.21195l29.98991,-20.43964l80.63259,10.9286l46.56574,7.8643c0,0 10.17799,6.22836 0.20165,17.69673c-5.07244,4.75768 -25.87548,17.21718 -44.43239,23.81611c-18.55691,6.59893 -33.65481,11.97819 -55.9953,11.8965z" fill="#312f3b" stroke-width="0" stroke-linecap="round"/></g></g></svg>