<svg version="1.1" xmlns="http://www.w3.org/2000/svg" xmlns:xlink="http://www.w3.org/1999/xlink" width="255.72122" height="255.72122" viewBox="0,0,255.72122,255.72122"><defs><linearGradient x1="238.46243" y1="107.73574" x2="233.51454" y2="145.88414" gradientUnits="userSpaceOnUse" id="color-1"><stop offset="0" stop-color="#fa9615"/><stop offset="1" stop-color="#c17415"/></linearGradient></defs><g transform="translate(-112.13939,-52.1394)"><g data-paper-data="{&quot;isPaintingLayer&quot;:true}" fill-rule="nonzero" stroke="#000000" stroke-linejoin="miter" stroke-miterlimit="10" stroke-dasharray="" stroke-dashoffset="0" style="mix-blend-mode: normal"><path d="M112.13964,180.00001c0,-70.61533 57.24504,-127.86036 127.86036,-127.86036c70.61533,0 127.86036,57.24505 127.86036,127.86036c0,70.61533 -57.24504,127.86036 -127.86036,127.86036c-70.61533,0 -127.86036,-57.24504 -127.86036,-127.86036z" fill="none" stroke-width="0.0005" stroke-linecap="butt"/><path d="M158.80251,155.92447c0,0 30.39613,-18.05203 41.04177,-34.47408c11.56477,-17.83993 3.74998,-33.05894 3.74998,-33.05894l-27.97759,7.86677c0,0 19.88683,-22.47644 37.20286,-25.0899c17.31603,-2.61347 39.14513,-4.5642 57.42005,10.80869c18.27491,15.37289 20.27123,51.03126 20.27123,51.03126l42.82547,19.67177l-29.79368,-3.52814c0,0 -29.96792,-3.11083 -52.78656,-2.47683c-22.81864,0.634 -35.99238,1.70643 -58.19864,5.56047c-22.20626,3.85403 -54.98397,11.35542 -54.98397,11.35542z" fill="#494759" stroke-width="0" stroke-linecap="round"/><path d="M291.27662,132.80507c0,0 -20.34167,-3.33612 -33.99309,-3.80391c-13.65141,-0.46779 -30.75966,-2.56217 -49.79458,1.40693c-19.03492,3.9691 -20.41473,5.01585 -20.41473,5.01585l15.057,-21.23974c0,0 9.42331,-1.96997 20.23466,-3.62748c10.81135,-1.65749 21.09175,-1.59229 37.50839,0.02467c16.41664,1.61696 28.89854,5.76492 28.89854,5.76492z" fill="url(#color-1)" stroke-width="0" stroke-linecap="round"/></g></g></svg>