<svg version="1.1" xmlns="http://www.w3.org/2000/svg" xmlns:xlink="http://www.w3.org/1999/xlink" width="167.72122" height="167.72122" viewBox="0,0,167.72122,167.72122"><defs><linearGradient x1="240" y1="154.72394" x2="240" y2="242.41391" gradientUnits="userSpaceOnUse" id="color-1"><stop offset="0" stop-color="#b51a32"/><stop offset="1" stop-color="#eb1b3b"/></linearGradient><linearGradient x1="240" y1="154.72394" x2="240" y2="242.41391" gradientUnits="userSpaceOnUse" id="color-2"><stop offset="0" stop-color="#b51a32"/><stop offset="1" stop-color="#eb1b3b"/></linearGradient><linearGradient x1="207.87864" y1="113.75958" x2="220.162" y2="157.89774" gradientUnits="userSpaceOnUse" id="color-3"><stop offset="0" stop-color="#14e01f"/><stop offset="1" stop-color="#13ac1f"/></linearGradient><linearGradient x1="272.12136" y1="113.75958" x2="259.838" y2="157.89775" gradientUnits="userSpaceOnUse" id="color-4"><stop offset="0" stop-color="#14e01f"/><stop offset="1" stop-color="#13ac1f"/></linearGradient><linearGradient x1="240" y1="142.11655" x2="240" y2="247.41369" gradientUnits="userSpaceOnUse" id="color-5"><stop offset="0" stop-color="#14e01f"/><stop offset="1" stop-color="#13ac1f"/></linearGradient></defs><g transform="translate(-156.13939,-96.1394)"><g data-paper-data="{&quot;isPaintingLayer&quot;:true}" fill-rule="nonzero" stroke-linejoin="miter" stroke-miterlimit="10" stroke-dasharray="" stroke-dashoffset="0" style="mix-blend-mode: normal"><path d="M156.13964,180.00001c0,-46.3148 37.54557,-83.86036 83.86036,-83.86036c46.3148,0 83.86036,37.54557 83.86036,83.86036c0,46.3148 -37.54557,83.86036 -83.86036,83.86036c-46.3148,0 -83.86036,-37.54557 -83.86036,-83.86036z" fill="none" stroke="#000000" stroke-width="0.0005" stroke-linecap="butt"/><path d="M205.62799,242.39306c0,0 -0.05126,0.1363 -0.12877,-0.46766c-0.72031,-5.61287 -11.12193,-87.20146 -11.12193,-87.20146h91.24541c0,0 -10.52831,82.46858 -11.15592,87.35926c-0.05784,0.45076 -0.09477,0.30985 -0.09477,0.30985z" fill="url(#color-1)" stroke="url(#color-2)" stroke-width="10" stroke-linecap="butt"/><path d="M225.12349,156.51699c0,0 -10.84517,-2.98103 -21.70085,-9.98817c-10.85568,-7.00713 -12.40937,-6.85417 -10.58921,-10.85444c1.82016,-4.00028 7.92015,-13.67242 14.90177,-20.84224c2.36091,-2.42456 4.63155,-2.6591 7.33532,-0.03795c2.70378,2.62116 24.06394,30.47776 24.06394,30.47776z" fill="url(#color-3)" stroke="#000000" stroke-width="0" stroke-linecap="round"/><path d="M240.86556,145.27195c0,0 21.36016,-27.85661 24.06394,-30.47776c2.70378,-2.62116 4.97441,-2.3866 7.33532,0.03795c6.98162,7.16982 13.08159,16.84197 14.90177,20.84224c1.82016,4.00028 0.26647,3.84731 -10.58921,10.85444c-10.85568,7.00713 -21.70085,9.98817 -21.70085,9.98817z" data-paper-data="{&quot;index&quot;:null}" fill="url(#color-4)" stroke="#000000" stroke-width="0" stroke-linecap="round"/><path d="M190.24694,187.59985c0,0 0,0.04034 0,-0.61446c0,-3.4571 0,-33.59705 0,-39.32385c0,-0.61461 0,-0.52437 0,-0.52437h99.50613c0,0 0,-0.07477 0,0.41722c0,2.9619 0,32.34267 0,39.2167c0,0.94043 0,0.82875 0,0.82875z" fill="#eb1b3b" stroke="#eb1b3b" stroke-width="10" stroke-linecap="butt"/><path d="M230.24939,247.41369v-105.29714h19.5012v105.29714z" fill="url(#color-5)" stroke="none" stroke-width="0" stroke-linecap="butt"/></g></g></svg>