<svg version="1.1" xmlns="http://www.w3.org/2000/svg" xmlns:xlink="http://www.w3.org/1999/xlink" width="167.72122" height="167.72122" viewBox="0,0,167.72122,167.72122"><defs><linearGradient x1="221.45748" y1="198.33664" x2="289.47835" y2="130.31576" gradientUnits="userSpaceOnUse" id="color-1"><stop offset="0" stop-color="#1467ae"/><stop offset="1" stop-color="#1283e0"/></linearGradient><linearGradient x1="221.92664" y1="184.11614" x2="221.92664" y2="253.34336" gradientUnits="userSpaceOnUse" id="color-2"><stop offset="0" stop-color="#1467ae"/><stop offset="1" stop-color="#1283e0"/></linearGradient></defs><g transform="translate(-156.13939,-96.1394)"><g data-paper-data="{&quot;isPaintingLayer&quot;:true}" fill-rule="nonzero" stroke-linecap="butt" stroke-linejoin="miter" stroke-miterlimit="10" stroke-dasharray="" stroke-dashoffset="0" style="mix-blend-mode: normal"><path d="M156.13964,180.00001c0,-46.3148 37.54557,-83.86036 83.86036,-83.86036c46.3148,0 83.86036,37.54557 83.86036,83.86036c0,46.3148 -37.54557,83.86036 -83.86036,83.86036c-46.3148,0 -83.86036,-37.54557 -83.86036,-83.86036z" fill="none" stroke="#000000" stroke-width="0.0005"/><g stroke="none" stroke-width="0.5"><path d="M239.94388,107.17458c6.26632,0 57.4867,29.42446 61.70965,35.41835c2.86072,4.35918 2.99694,5.44897 2.99694,37.73416c0,28.33467 -0.27244,33.91988 -2.17959,37.05304c-1.39101,2.34274 -12.04735,5.01279 -19.93575,0.66871c-2.5186,-1.38698 -10.66647,-7.02971 -10.66647,-7.02971c0,0 3.45548,-1.24876 4.83405,-2.98546c1.37857,-1.73669 4.16468,-4.9654 4.54153,-8.82566c0.37684,-3.86026 0.27892,-20.73332 0.1081,-35.87743c-0.03656,-3.24172 -0.72841,-7.09446 -4.86004,-10.06038c-4.13162,-2.96592 -18.20789,-12.03847 -30.60717,-18.41055c-5.72732,-2.94332 -7.0305,-2.46128 -11.93238,-0.39122c-4.90188,2.07006 -18.29833,9.29811 -30.51785,17.78482c-2.5389,1.76332 -4.7523,2.93065 -6.11523,7.43184c-1.36293,4.50118 -0.38047,7.81049 -0.38047,7.81049c0,0 -7.31033,-3.42854 -10.53772,-5.412c-10.77149,-6.26705 -11.13784,-16.06802 -10.07441,-18.12839c2.04337,-3.67806 6.94745,-7.2199 23.56681,-16.7556c11.57907,-6.675 24.24794,-13.89489 28.33467,-16.07448c4.08673,-2.17959 9.26327,-3.95051 11.71529,-3.95051z" fill="url(#color-1)"/><path d="M302.47088,217.38013c-1.39101,2.34274 -1.68035,3.19036 -6.49271,6.28561c-4.14205,2.6641 -6.09603,4.67098 -10.52177,6.78646c-4.68378,2.23882 -9.15224,4.79402 -11.6037,4.86407c-3.98056,-0.20504 -10.00158,-0.28096 -17.88997,-4.62504c-16.16592,-8.90245 -41.05055,-22.84641 -68.27357,-39.57701c-10.77149,-6.26705 -13.80007,-15.36484 -13.71514,-23.32081c0.0607,-5.68543 -0.02751,-9.85855 0.33493,-14.94053c0.34531,-4.84182 0.95474,-6.83732 2.01817,-8.89771c0.54981,-0.98967 -1.86536,8.793 11.7277,16.15417c24.07576,13.03796 68.38971,40.41029 93.26348,54.84518c13.5722,7.8763 21.63769,1.62868 21.15261,2.4256z" fill="#1283e0"/><path d="M269.50884,239.54648c-19.44339,11.27964 -24.67084,13.66264 -29.36916,13.79688c-5.72142,0 -9.80817,-2.04337 -50.8117,-26.01886c-14.54061,-8.45999 -14.97153,-8.71071 -14.9843,-43.19595c-0.00014,-0.34999 -0.38131,6.76395 11.96443,14.09958c13.54343,8.04728 50.40982,29.95897 64.66341,37.31554c15.21081,7.85061 18.6369,3.94504 18.5373,4.00282z" fill="url(#color-2)"/></g></g></g></svg>