<svg version="1.1" xmlns="http://www.w3.org/2000/svg" xmlns:xlink="http://www.w3.org/1999/xlink" width="167.72122" height="167.72122" viewBox="0,0,167.72122,167.72122"><defs><linearGradient x1="195.97012" y1="120.58586" x2="313.59423" y2="191.20658" gradientUnits="userSpaceOnUse" id="color-1"><stop offset="0" stop-color="#114a7c"/><stop offset="1" stop-color="#1283e0"/></linearGradient><linearGradient x1="211.99198" y1="248.53788" x2="211.99198" y2="111.34197" gradientUnits="userSpaceOnUse" id="color-2"><stop offset="0" stop-color="#114a7c"/><stop offset="1" stop-color="#1283e0"/></linearGradient><linearGradient x1="246.19166" y1="157.14968" x2="246.19166" y2="253.34703" gradientUnits="userSpaceOnUse" id="color-3"><stop offset="0" stop-color="#114a7c"/><stop offset="1" stop-color="#1283e0"/></linearGradient><linearGradient x1="195.97012" y1="120.58586" x2="313.59423" y2="191.20658" gradientUnits="userSpaceOnUse" id="color-4"><stop offset="0" stop-color="#114a7c"/><stop offset="1" stop-color="#1283e0"/></linearGradient></defs><g transform="translate(-156.13939,-96.1394)"><g data-paper-data="{&quot;isPaintingLayer&quot;:true}" fill-rule="nonzero" stroke="#000000" stroke-linejoin="miter" stroke-miterlimit="10" stroke-dasharray="" stroke-dashoffset="0" style="mix-blend-mode: normal"><path d="M156.13964,180.00001c0,-46.3148 37.54557,-83.86036 83.86036,-83.86036c46.3148,0 83.86036,37.54557 83.86036,83.86036c0,46.3148 -37.54557,83.86036 -83.86036,83.86036c-46.3148,0 -83.86036,-37.54557 -83.86036,-83.86036z" fill="none" stroke-width="0.0005" stroke-linecap="butt"/><g stroke-width="0" stroke-linecap="round"><path d="M288.71407,132.06115c3.47169,1.97066 11.24201,5.52535 14.59231,11.87071c3.6067,6.83097 2.6697,16.54525 2.68166,20.72403c0.02598,9.0778 0.08288,28.95202 0.08288,28.95202l-0.03599,10.18928c0,0 -0.5617,-5.35829 -2.39127,-9.02449c-1.60188,-3.20995 -5.34658,-5.74708 -5.34658,-5.74708c0,0 -41.19415,-24.28194 -50.80695,-29.94821c-1.91632,-1.12958 -5.21372,-2.74255 -8.40629,-2.64519c-3.15354,0.09618 -6.20356,1.88948 -7.92113,2.91169c-5.66226,3.36988 -22.40722,13.33563 -22.40722,13.33563l-21.04575,-38.33534c0,0 24.65521,-14.38057 34.17824,-19.93504c3.81531,-2.22535 11.25602,-6.77971 17.2671,-7.64156c4.7622,-0.68279 8.2442,1.84168 11.01181,3.41269c11.90666,6.75869 30.55809,17.34597 38.54718,21.8809z" fill="url(#color-1)"/><path d="M174.09089,163.11756c-0.09749,-3.99082 -1.04964,-12.4824 2.66597,-18.621c3.99997,-6.60838 12.81077,-10.80542 16.38726,-12.96667c7.76943,-4.69502 24.77919,-14.97391 24.77919,-14.97391l8.75424,-5.21401c0,0 -4.30477,3.23972 -6.5062,6.69544c-1.92747,3.02566 -2.17512,7.54213 -2.17512,7.54213c0,0 0.38645,47.81654 0.47664,58.9747c0.01798,2.22438 0.33241,5.88167 2.05925,8.56869c1.70573,2.65417 4.81318,4.34598 6.57367,5.29236c5.80376,3.11988 22.9672,12.34628 22.9672,12.34628l-22.0334,37.77632c0,0 -25.02021,-13.7357 -34.68422,-19.04109c-3.8718,-2.12555 -11.60652,-6.16047 -15.43958,-10.8704c-3.0367,-3.73138 -2.6647,-8.01611 -2.74241,-11.19757c-0.33436,-13.68709 -0.85811,-35.12754 -1.08246,-44.31125z" fill="url(#color-2)"/><path d="M257.11861,246.6891c-3.44899,2.01014 -10.4285,6.93964 -17.59799,6.64531c-7.71816,-0.31685 -15.64418,-6.01103 -19.26237,-8.10172c-7.86002,-4.54174 -25.06809,-14.48506 -25.06809,-14.48506l-8.78963,-5.15415c0,0 4.91419,2.20854 9.00317,2.47036c3.58011,0.22923 7.65603,-1.73207 7.65603,-1.73207c0,0 41.70144,-23.40001 51.43262,-28.86048c1.93992,-1.08854 4.99209,-3.12786 6.51311,-5.93651c1.50243,-2.77432 1.48577,-6.31243 1.46574,-8.31107c-0.06605,-6.58885 -0.26139,-26.07402 -0.26139,-26.07402l43.71899,1.08235c0,0 0.0344,28.54259 0.04768,39.56711c0.00532,4.41688 0.20108,13.13857 -2.07622,18.76794c-1.80416,4.45979 -5.73704,6.20039 -8.48656,7.80286c-11.8288,6.89406 -30.35825,17.6934 -38.29509,22.31915z" fill="url(#color-3)"/><path d="M288.71407,132.06115c3.47169,1.97067 11.24201,5.52535 14.59231,11.87071c3.6067,6.83097 2.6697,16.54526 2.68166,20.72403c0.02598,9.0778 0.08287,28.95202 0.08287,28.95202l-0.03599,10.18928c0,0 -0.5617,-5.3583 -2.39127,-9.0245c-1.60188,-3.20994 -5.34658,-5.74709 -5.34658,-5.74709c0,0 -21.79802,-12.84887 -37.38119,-22.03439c0.55109,-3.96535 -0.76547,-7.88162 -0.97786,-12.03043c-0.09677,-1.8905 0.10094,-4.00465 -0.0468,-5.96493c-0.12842,-1.70393 -0.99788,-7.14626 -1.03704,-9.75069c-0.10843,-7.21229 0.01824,-14.42623 0,-21.63931c-0.00214,-0.8485 -0.03618,-1.69725 -0.09121,-2.5461c10.95749,6.2199 23.70891,13.45812 29.95108,17.00142z" fill="url(#color-4)"/></g></g></g></svg>