<?xml version="1.0" standalone="no"?>
<!DOCTYPE svg PUBLIC "-//W3C//DTD SVG 20010904//EN"
 "http://www.w3.org/TR/2001/REC-SVG-20010904/DTD/svg10.dtd">
<svg version="1.0" xmlns="http://www.w3.org/2000/svg"
 width="2500.000000pt" height="2500.000000pt" viewBox="0 0 2500.000000 2500.000000"
 preserveAspectRatio="xMidYMid meet">

<g transform="translate(0.000000,2500.000000) scale(0.100000,-0.100000)"
stroke="none">
<path d="M1947 21482 l-387 -387 0 -8595 0 -8595 393 -393 393 -392 1952 0
1952 0 0 785 0 785 -1560 0 -1560 0 0 7810 0 7810 1560 0 1560 0 0 780 0 780
-1958 0 -1957 0 -388 -388z"/>
<path d="M18750 21090 l0 -780 1560 0 1560 0 0 -7810 0 -7810 -1560 0 -1560 0
0 -785 0 -785 1952 0 1952 0 393 392 393 393 0 8595 0 8595 -387 387 -388 388
-1957 0 -1958 0 0 -780z"/>
</g>
</svg>
