<?xml version="1.0" standalone="no"?>
<!DOCTYPE svg PUBLIC "-//W3C//DTD SVG 20010904//EN"
 "http://www.w3.org/TR/2001/REC-SVG-20010904/DTD/svg10.dtd">
<svg version="1.0" xmlns="http://www.w3.org/2000/svg"
 width="2500.000000pt" height="2500.000000pt" viewBox="0 0 2500.000000 2500.000000"
 preserveAspectRatio="xMidYMid meet">

<g transform="translate(0.000000,2500.000000) scale(0.100000,-0.100000)"
stroke="none">
<path d="M11929 22909 c-2500 -61 -4823 -525 -6414 -1282 -925 -440 -1579
-956 -1981 -1565 -70 -106 -199 -354 -247 -477 -90 -228 -142 -467 -157 -730
-13 -232 -13 -12478 0 -12709 11 -182 27 -296 66 -447 182 -723 716 -1376
1564 -1913 1025 -650 2523 -1152 4280 -1435 1109 -179 2227 -264 3460 -264
1000 0 1797 47 2719 159 1808 219 3461 683 4583 1285 1203 645 1883 1430 2042
2355 9 50 21 167 26 260 13 231 13 12477 0 12709 -21 353 -96 629 -262 958
-284 562 -809 1075 -1543 1509 -1804 1066 -4883 1667 -8136 1587z m1576 -2098
c874 -50 1527 -120 2228 -237 1766 -294 3204 -843 3823 -1459 153 -151 234
-278 234 -365 0 -165 -301 -478 -696 -724 -1080 -671 -2975 -1155 -5109 -1306
-507 -35 -666 -41 -1280 -47 -763 -7 -1275 11 -1950 67 -1960 165 -3684 609
-4735 1218 -462 268 -810 608 -810 792 0 107 138 294 344 469 609 515 1769
972 3206 1261 907 183 1868 294 2945 340 266 11 1560 5 1800 -9z m-8094 -4887
c2033 -1011 5361 -1508 8629 -1289 2200 148 4174 607 5560 1293 96 48 178 89
182 90 5 2 8 -799 8 -1780 l0 -1783 -25 -54 c-77 -165 -317 -397 -605 -584
-1073 -696 -3052 -1207 -5235 -1352 -482 -31 -627 -36 -1215 -42 -983 -9
-1727 29 -2605 133 -2117 250 -3906 850 -4643 1558 -117 113 -182 195 -223
281 l-29 60 0 1783 c0 980 2 1782 4 1782 2 0 91 -43 197 -96z m-16 -6243
c1419 -704 3468 -1172 5715 -1305 902 -54 1898 -54 2785 -1 2252 136 4282 600
5705 1303 96 48 178 88 183 90 4 2 7 -799 7 -1780 l0 -1783 -25 -54 c-77 -165
-317 -397 -605 -584 -1073 -696 -3052 -1207 -5235 -1352 -482 -31 -627 -36
-1215 -42 -983 -9 -1727 29 -2605 133 -2117 250 -3906 850 -4643 1558 -117
113 -182 195 -223 281 l-29 60 0 1783 c0 980 1 1782 3 1782 2 0 84 -40 182
-89z"/>
</g>
</svg>
