<?xml version="1.0" standalone="no"?>
<!DOCTYPE svg PUBLIC "-//W3C//DTD SVG 20010904//EN"
 "http://www.w3.org/TR/2001/REC-SVG-20010904/DTD/svg10.dtd">
<svg version="1.0" xmlns="http://www.w3.org/2000/svg"
 width="2500.000000pt" height="2500.000000pt" viewBox="0 0 2500.000000 2500.000000"
 preserveAspectRatio="xMidYMid meet">

<g transform="translate(0.000000,2500.000000) scale(0.100000,-0.100000)" stroke="none">
<path d="M11355 22909 c-342 -30 -658 -245 -818 -557 -25 -48 -56 -123 -70
-167 -13 -44 -296 -1303 -628 -2797 l-603 -2718 -2521 0 c-1569 0 -2562 -4
-2631 -10 -264 -23 -483 -128 -666 -318 -192 -199 -288 -438 -288 -717 0 -279
96 -518 288 -717 183 -190 402 -295 666 -318 69 -6 982 -10 2400 -10 2174 0
2288 -1 2284 -17 -3 -10 -211 -946 -463 -2080 l-458 -2063 -1826 0 c-1114 0
-1869 -4 -1937 -10 -264 -23 -483 -128 -666 -318 -192 -199 -288 -438 -288
-717 0 -279 96 -518 288 -717 183 -190 402 -295 666 -318 67 -6 742 -10 1704
-10 875 0 1592 -2 1592 -5 0 -3 -250 -1129 -555 -2503 -306 -1373 -561 -2541
-567 -2595 -22 -187 25 -425 118 -597 325 -596 1132 -727 1624 -264 133 125
231 281 283 449 13 44 296 1303 628 2798 l603 2717 2058 0 c1132 0 2058 -2
2058 -5 0 -3 -250 -1129 -555 -2503 -306 -1373 -561 -2541 -567 -2595 -22
-187 25 -425 118 -597 325 -596 1132 -727 1624 -264 133 125 231 281 283 449
13 44 296 1303 628 2798 l603 2717 2521 0 c1569 0 2562 4 2631 10 447 40 805
340 927 778 18 66 21 104 21 257 0 153 -3 191 -21 257 -52 185 -147 349 -275
476 -183 180 -397 279 -652 302 -69 6 -982 10 -2400 10 -2174 0 -2288 1 -2284
18 3 9 211 945 463 2080 l458 2062 1826 0 c1114 0 1869 4 1937 10 447 40 805
340 927 778 18 66 21 104 21 257 0 153 -3 191 -21 257 -52 185 -147 349 -275
476 -183 180 -397 279 -652 302 -67 6 -742 10 -1703 10 -876 0 -1593 2 -1593
5 0 3 250 1129 555 2503 306 1373 561 2541 567 2595 31 262 -60 558 -236 768
-380 454 -1067 499 -1498 100 -139 -129 -237 -284 -291 -456 -13 -44 -296
-1303 -628 -2797 l-603 -2718 -2058 0 c-1132 0 -2058 2 -2058 5 0 3 250 1129
555 2503 306 1373 561 2541 567 2595 31 262 -60 558 -236 768 -221 264 -550
398 -901 368z m3663 -8346 c-3 -10 -211 -946 -463 -2080 l-458 -2063 -2060 0
c-1956 0 -2059 1 -2055 18 3 9 211 945 463 2080 l458 2062 2060 0 c1956 0
2059 -1 2055 -17z"/>
</g>
</svg>
