<svg version="1.1" xmlns="http://www.w3.org/2000/svg" xmlns:xlink="http://www.w3.org/1999/xlink" width="448.00383" height="460" viewBox="0,0,448.00383,460"><g transform="translate(-15.99818,50)"><g data-paper-data="{&quot;isPaintingLayer&quot;:true}" fill-rule="nonzero" stroke="none" stroke-width="1" stroke-linecap="butt" stroke-linejoin="miter" stroke-miterlimit="10" stroke-dasharray="" stroke-dashoffset="0" style="mix-blend-mode: normal"><path d="M460.28,258.11l-42.71,73.89c-0.04701,0.0711 -0.0904,0.14452 -0.13,0.22c-6.66517,11.13054 -20.33549,15.90337 -32.48,11.34l-0.35,-0.14l-37.13,-14.95c-4.73519,-1.91625 -10.10231,-1.44389 -14.43,1.27c-3.24,2.03 -6.58,3.98 -10,5.82c-4.44267,2.42448 -7.47627,6.808 -8.18,11.82l-5.57,39.67l-0.09,0.56c-2.20217,12.90044 -13.36302,22.34812 -26.45,22.39h-85.52c-12.90748,-0.10395 -23.96712,-9.25906 -26.48,-21.92l-0.12,-0.72l-5.56,-39.59c-0.69673,-5.01755 -3.73691,-9.40521 -8.19,-11.82c-3.38667,-1.83333 -6.72,-3.78667 -10,-5.86c-4.33565,-2.7307 -9.71968,-3.21069 -14.47,-1.29l-37.07,14.93l-0.35,0.13c-12.12638,4.54957 -25.77242,-0.20236 -32.45,-11.3c-0.03736,-0.0767 -0.08083,-0.15027 -0.13,-0.22l-42.71,-73.9c-6.64844,-11.26462 -4.14998,-25.68795 5.9,-34.06l0.47,-0.38l31.55,-24.76c4.0404,-3.17062 6.31315,-8.0881 6.11,-13.22v-11.56c0.22315,-5.16468 -2.04572,-10.12273 -6.1,-13.33l-31.56,-24.75l-0.47,-0.38c-10.05995,-8.38349 -12.55843,-22.82389 -5.9,-34.1l42.77,-73.95l0.13,-0.22c6.67058,-11.1239 20.33539,-15.8948 32.48,-11.34l0.35,0.14l37.13,15c4.73519,1.91625 10.10231,1.44389 14.43,-1.27c3.24,-2.03 6.58,-3.98 10,-5.82c4.42348,-2.43621 7.43719,-6.81777 8.13,-11.82l5.57,-39.67l0.09,-0.56c2.20217,-12.90044 13.36302,-22.34812 26.45,-22.39h85.52c12.88486,0.13223 23.91174,9.28094 26.42,21.92l0.12,0.72l5.59,39.59c0.69673,5.01755 3.73691,9.40521 8.19,11.82c3.38667,1.84 6.72,3.79333 10,5.86c4.33565,2.7307 9.71968,3.21069 14.47,1.29l37.1,-14.93l0.35,-0.13c12.12638,-4.54957 25.77242,0.20236 32.45,11.3c0.03736,0.0767 0.08083,0.15027 0.13,0.22l42.71,73.9c6.64844,11.26462 4.14998,25.68795 -5.9,34.06l-0.47,0.38l-31.55,24.76c-4.0404,3.17062 -6.31315,8.0881 -6.11,13.22v11.56c-0.22315,5.16468 2.04572,10.12273 6.1,13.33l31.56,24.75l0.47,0.38c10.06579,8.3852 12.56089,22.83476 5.89,34.11zM296.49848,123.50873c-15.9092,-15.91111 -37.76989,-24.40841 -60.24848,-23.41873c-43.16099,2.02448 -76.9153,37.9556 -76.24198,81.1588c0.67333,43.2032 35.53095,78.06499 78.73407,78.74348c43.20312,0.67849 79.13827,-33.07153 81.16791,-76.23228c0.99237,-22.47846 -7.50232,-44.34017 -23.41152,-60.25127z"/></g></g></svg>