<?xml version="1.0" standalone="no"?>
<!DOCTYPE svg PUBLIC "-//W3C//DTD SVG 20010904//EN"
 "http://www.w3.org/TR/2001/REC-SVG-20010904/DTD/svg10.dtd">
<svg version="1.0" xmlns="http://www.w3.org/2000/svg"
 width="2500.000000pt" height="2500.000000pt" viewBox="0 0 2500.000000 2500.000000"
 preserveAspectRatio="xMidYMid meet">

<g transform="translate(0.000000,2500.000000) scale(0.100000,-0.100000)" stroke="none">
<path d="M10625 22739 c-1701 -83 -3248 -424 -4750 -1049 -1382 -575 -2708
-1401 -3920 -2440 -521 -447 -643 -576 -754 -793 -95 -187 -141 -382 -141
-602 0 -358 132 -677 385 -931 257 -258 573 -388 940 -388 213 1 370 35 564
125 128 59 230 133 411 296 1157 1040 2308 1781 3587 2308 1102 455 2223 713
3523 812 289 21 1200 25 1415 5 1106 -102 2068 -385 3145 -923 1030 -516 2072
-1247 3129 -2197 l175 -157 -1525 -5 c-1674 -6 -1549 -2 -1745 -66 -397 -129
-724 -457 -847 -849 -49 -157 -60 -230 -60 -405 -1 -133 4 -185 21 -267 113
-525 499 -913 1030 -1035 l97 -23 3108 -2 c3385 -4 3190 -7 3392 52 121 35
290 118 398 195 108 77 257 231 326 336 102 154 176 337 206 509 14 81 15 415
15 3200 0 2098 -4 3131 -11 3175 -92 579 -521 1016 -1093 1115 -115 19 -317
19 -437 -1 -545 -91 -972 -511 -1086 -1068 -15 -73 -17 -227 -20 -1483 l-4
-1403 -165 150 c-1202 1090 -2508 1999 -3769 2625 -1444 715 -2854 1101 -4334
1185 -211 12 -953 11 -1206 -1z"/>
<path d="M1653 12629 c-221 -20 -455 -110 -645 -246 -99 -71 -249 -225 -315
-323 -99 -148 -171 -315 -210 -492 -17 -79 -18 -224 -18 -3228 l0 -3145 23
-104 c121 -540 520 -931 1059 -1038 130 -25 366 -23 500 6 481 101 853 437
1001 901 63 198 62 169 62 1674 0 751 2 1366 5 1366 3 0 98 -84 213 -186 1971
-1768 3996 -2927 6032 -3453 1138 -294 2224 -385 3545 -296 2781 187 5278
1122 7555 2829 474 355 1143 922 1350 1143 409 438 462 1117 126 1623 -206
308 -528 516 -894 576 -142 23 -382 14 -517 -20 -266 -66 -403 -148 -715 -426
-547 -488 -993 -836 -1538 -1199 -1469 -979 -3052 -1578 -4772 -1805 -972
-129 -1929 -136 -2685 -21 -1077 164 -2135 552 -3226 1183 -826 478 -1668
1100 -2523 1866 l-180 161 1495 5 c1616 6 1541 3 1729 59 450 132 790 485 913
949 29 112 31 126 31 317 1 186 -1 208 -27 308 -115 458 -434 807 -870 952
-210 70 38 65 -3362 68 -1688 1 -3103 -1 -3142 -4z"/>
</g>
</svg>
